<?xml version="1.0" encoding="UTF-8"?>
<svg width="18px" height="18px" viewBox="0 0 18 18" version="1.1" xmlns="http://www.w3.org/2000/svg" xmlns:xlink="http://www.w3.org/1999/xlink">
    <!-- Generator: Sketch 55.1 (78136) - https://sketchapp.com -->
    <title>ico4_selected</title>
    <desc>Created with Sketch.</desc>
    <g id="Page-1" stroke="none" stroke-width="1" fill="none" fill-rule="evenodd" stroke-linecap="round" stroke-linejoin="round">
        <g id="index_유치원_유치원활동설정-후" transform="translate(-29.000000, -383.000000)" stroke="#FFFFFF" stroke-width="2">
            <g id="사이드메뉴" transform="translate(30.000000, 30.000000)">
                <g id="Bottom_Menu" transform="translate(0.000000, 354.000000)">
                    <g id="menu1">
                        <g id="ico4_selected">
                            <path d="M6.06896552,11.0344828 L0,14.3453793 L0,15.4482759 C0,15.7522759 0.240551724,16 0.533517241,16 L15.4664828,16 C15.7605517,16 16,15.7522759 16,15.4482759 L16,14.3453793 L16,14.3442759 L9.93958621,11.0344828" id="Stroke-1"></path>
                            <path d="M9.93966897,11.0344828 C12.1380138,9.72193103 12.1380138,6.30013793 12.1380138,6.30013793 L12.1358069,3.15089655 C11.8378759,1.36165517 9.81442759,0 8.00008276,0 L8.00008276,0.00110344828 C6.18656552,0.00110344828 4.16228966,1.36248276 3.86518621,3.15144828 L3.86215172,6.30124138 C3.86215172,6.30124138 3.86215172,9.62703448 6.06904828,11.0344828" id="Stroke-3"></path>
                        </g>
                    </g>
                </g>
            </g>
        </g>
    </g>
</svg>