<?xml version="1.0" encoding="UTF-8"?>
<svg width="18px" height="18px" viewBox="0 0 18 18" version="1.1" xmlns="http://www.w3.org/2000/svg" xmlns:xlink="http://www.w3.org/1999/xlink">
    <!-- Generator: Sketch 54 (76480) - https://sketchapp.com -->
    <title>ico5</title>
    <desc>Created with Sketch.</desc>
    <g id="Page-1" stroke="none" stroke-width="1" fill="none" fill-rule="evenodd" stroke-linecap="round" stroke-linejoin="round">
        <g id="1.index_시전체_활동량" transform="translate(-29.000000, -310.000000)" stroke="#C5CBD4" stroke-width="2">
            <g id="사이드메뉴" transform="translate(30.000000, 30.000000)">
                <g id="Bottom_Menu" transform="translate(0.000000, 233.000000)">
                    <g id="menu2" transform="translate(0.000000, 46.000000)">
                        <g id="ico5" transform="translate(0.000000, 2.000000)">
                            <path d="M11.0002759,7.99028966 C11.0002759,9.66642759 9.64165517,11.0247724 7.96606897,11.0247724 C6.28993103,11.0247724 4.93131034,9.66642759 4.93131034,7.99028966 C4.93131034,6.31442759 6.28993103,4.9558069 7.96606897,4.9558069 C9.64165517,4.9558069 11.0002759,6.31442759 11.0002759,7.99028966 Z" id="Stroke-1"></path>
                            <path d="M13.8701517,9.34537931 L16.0000828,9.01710345 L15.9931862,6.93268966 L13.8624276,6.65351724 C13.7062897,5.98151724 13.4378759,5.35365517 13.0764966,4.78896552 L14.3766345,3.06206897 L12.8958069,1.59062069 L11.1653241,2.90868966 C10.6072552,2.56358621 9.99042759,2.30537931 9.33056552,2.15641379 L9.01718621,0 L6.92973793,0.00579310345 L6.65249655,2.15862069 C5.97966897,2.31144828 5.35097931,2.57682759 4.78463448,2.93324138 L3.06270345,1.62344828 L1.59125517,3.104 L2.91153103,4.79365517 C2.55015172,5.35972414 2.28146207,5.98924138 2.12587586,6.66317241 L8.27586207e-05,6.98372414 L0.00753103448,9.06786207 L2.11704828,9.32993103 C2.26766897,10.0044138 2.53387586,10.6342069 2.89166897,11.201931 L1.62325517,12.9384828 L3.10546207,14.4088276 L4.81856552,13.1158621 C5.37801379,13.4631724 5.99677241,13.7222069 6.65828966,13.872 L6.98408276,16 L9.06822069,15.9925517 L9.35042759,13.8673103 C10.0166345,13.7142069 10.6392552,13.4513103 11.2009103,13.0984828 L12.9385655,14.3765517 L14.4094621,12.8957241 L13.1073931,11.1889655 C13.4582897,10.6286897 13.719531,10.0088276 13.8701517,9.34537931 Z" id="Stroke-3"></path>
                        </g>
                    </g>
                </g>
            </g>
        </g>
    </g>
</svg>