<?xml version="1.0" encoding="UTF-8"?>
<svg width="32px" height="35px" viewBox="0 0 32 35" version="1.1" xmlns="http://www.w3.org/2000/svg" xmlns:xlink="http://www.w3.org/1999/xlink">
    <!-- Generator: Sketch 54 (76480) - https://sketchapp.com -->
    <title>Group 11</title>
    <desc>Created with Sketch.</desc>
    <g id="Page-1" stroke="none" stroke-width="1" fill="none" fill-rule="evenodd">
        <g id="1.index_시전체_활동량" transform="translate(-30.000000, -30.000000)">
            <g id="사이드메뉴" transform="translate(30.000000, 30.000000)">
                <g id="로고및사업체">
                    <g id="Group-11">
                        <path d="M19.1682759,4.66662 C19.233931,4.77078 19.32,4.86346 19.3296552,4.96762 C19.4273103,5.27226 19.7048276,5.45454 19.7390345,5.76562 C19.7506207,5.86894 19.8833103,5.9101 19.9525517,5.9563 C20.0270345,6.05318 19.9748966,6.16294 20.1191724,6.30658 C20.1878621,6.35194 20.1357241,6.46198 20.1473103,6.56614 C20.2157241,6.61122 20.2871724,6.65714 20.3547586,6.7025 C20.9768276,7.69118 21.0372414,8.83806 20.3155862,9.90206 C20.2002759,10.01798 20.0907586,10.18514 20.0435862,10.34698 C19.9848276,10.40522 19.864,10.46906 19.8055172,10.5273 C19.8168276,10.63202 19.8857931,10.67654 19.96,10.77426 C19.6485517,10.85686 19.6129655,11.12062 19.3746207,11.30234 C19.312,11.30738 19.1848276,11.32026 19.1208276,11.32614 C18.945931,11.49918 18.7608276,11.56946 18.5809655,11.69154 C18.5241379,11.74978 18.5398621,11.90574 18.545931,11.9567 C18.2507586,12.19442 17.8162759,12.34114 17.3644138,12.33106 C17.3015172,12.33806 17.2546207,12.49934 17.1906207,12.50494 C16.872,12.53574 16.4849655,12.51978 16.1663448,12.55002 C16.0333793,12.51082 15.9586207,12.41366 15.8251034,12.37278 C15.6982069,12.38566 15.5710345,12.39714 15.4372414,12.35822 C15.230069,12.21962 14.9702069,12.19302 14.7666207,12.10762 C14.633931,12.06674 14.390069,12.19442 14.2524138,12.10398 C13.8248276,11.72402 13.3986207,11.3477 13.1627586,10.94954 C13.0068966,10.70314 12.7409655,10.62418 12.6488276,10.37078 C12.6383448,10.26662 12.686069,10.10562 12.5511724,10.06586 C12.2846897,9.9855 12.3961379,9.81806 12.3798621,9.66294 C12.2987586,9.5137 12.2866207,9.4101 12.1434483,9.26562 C12.0623448,9.11638 12.1663448,8.8963 12.081931,8.6961 C12.0758621,8.64374 12.1337931,8.58522 12.1282759,8.5337 C12.0311724,8.22822 12.1884138,7.90006 12.1602759,7.64078 C12.142069,7.48538 12.1845517,7.27062 12.2303448,7.1099 C12.3878621,6.78006 12.5395862,6.3987 12.824,6.05738 C12.8176552,6.00698 12.8063448,5.90366 12.8013793,5.85074 C12.8595862,5.79166 12.9227586,5.78718 12.9809655,5.72782 C13.0802759,5.45734 13.1842759,5.23754 13.3542069,5.01214 C13.5793103,4.72906 13.9395862,4.4849 14.230069,4.19538 C14.4030345,4.02234 14.6468966,3.89438 14.8093793,3.6155 C14.8681379,3.5581 15.0706207,3.64378 15.1291034,3.58694 C15.3023448,3.4125 15.5635862,3.4405 15.7428966,3.31814 C15.9216552,3.19746 15.886069,3.46122 16.0711724,3.3915 C16.1991724,3.37946 16.256,3.32178 16.3787586,3.2571 C16.5633103,3.18822 16.7715862,3.32402 16.9688276,3.3593 C17.1591724,3.3397 17.3564138,3.3747 17.5644138,3.51134 C17.8411034,3.69446 18.4783448,3.63286 18.5809655,3.99126 C18.7365517,4.23766 19.0129655,4.42106 19.1682759,4.66662" id="Fill-1" fill="#BC1238"></path>
                        <path d="M30.5295448,11.143524 C30.5858207,11.063724 30.5593379,10.903004 30.4785103,10.831884 C30.3527172,10.752084 30.1905103,10.872764 30.1182345,11.012764 C30.0456828,11.153044 30.1000276,11.374244 30.2903724,11.363324 C30.3347862,11.374244 30.4658207,11.235364 30.5295448,11.143524 M30.9152,9.770124 C30.9245793,9.515044 31.0420966,9.329124 30.9965793,9.057804 C30.9074759,8.777244 30.7033379,9.055844 30.5579586,9.076844 C30.6398897,9.407244 30.5055448,9.637124 30.4054069,9.928044 C30.3436138,10.018484 30.2978207,10.269924 30.4420966,10.250044 C30.6674759,10.299884 30.9080276,10.080924 30.9152,9.770124 M29.9449931,8.768004 C29.9375448,8.605324 29.9449931,8.507044 29.881269,8.336804 C29.8638897,8.175244 29.9894069,7.994924 29.9350621,7.773444 C29.8983724,7.714084 29.8175448,7.643524 29.8274759,7.593964 C29.9350621,7.253484 29.9436138,6.941564 29.9165793,6.571124 C29.889269,6.459684 29.8539586,6.400044 29.8175448,6.339004 C29.8260966,6.289444 29.8445793,6.188924 29.8630621,6.088964 C29.8707862,5.777884 29.7723034,5.547444 29.6826483,5.265764 C29.6550621,5.156564 29.5739586,5.085444 29.5565793,4.925284 C29.5201655,4.865644 29.4390621,4.793964 29.4467862,4.744124 C29.5281655,4.292204 29.3118897,3.931004 29.2484414,3.500084 C29.1485793,3.008684 28.6903724,2.698164 28.545269,2.196964 C28.5527172,2.145724 28.7027862,2.167284 28.7480276,2.177924 C29.1088552,2.518684 29.5063724,2.919364 29.605131,3.411044 C29.6685793,3.582684 29.6415448,3.731924 29.7143724,3.853444 C30.0197517,4.233404 30.0746483,4.715564 30.1289931,5.196884 C30.1209931,5.247564 30.2192,5.217044 30.2550621,5.278644 C30.2465103,5.327644 30.2280276,5.428164 30.2641655,5.488364 C30.4986483,5.748484 30.3546483,6.029324 30.4004414,6.301204 C30.4277517,6.411804 30.4625103,6.471164 30.4986483,6.530804 C30.4898207,6.581764 30.3736828,6.713364 30.3634759,6.762084 C30.5543724,7.012964 30.6346483,7.344764 30.5814069,7.644924 C30.7979586,7.746284 30.6986483,8.035804 30.7524414,8.257284 C30.7872,8.317484 30.8340966,8.327284 30.8793379,8.337644 C30.9408552,8.246924 31.0040276,8.156484 31.0225103,8.055964 C31.0500966,7.644924 31.0677517,7.283724 30.9949241,6.902924 C30.9323034,6.732684 30.9127172,6.571684 31.0305103,6.441764 C30.9403034,6.421604 30.9127172,6.310444 30.8774069,6.249684 C30.7154759,5.587484 30.6470621,4.846044 30.4545103,4.168724 C30.4545103,4.168724 30.5077517,4.129244 30.5182345,4.079684 C30.4498207,3.486924 30.005131,2.928884 29.7940966,2.331084 C29.7607172,2.224124 29.5894069,2.097004 29.5096828,1.981924 C29.5096828,1.981924 29.5149241,1.931804 29.5207172,1.880564 C29.7488552,1.913044 29.9226483,2.136484 30.0420966,2.308684 C30.2798897,2.651404 30.5543724,3.031644 30.6260966,3.412444 C30.7524414,3.752644 30.9383724,4.113564 31.0136828,4.445364 C31.0630621,4.666564 31.2222345,4.811604 31.3267862,4.995564 C31.3863724,5.168044 31.3560276,5.316724 31.3709241,5.477724 C31.4354759,5.860764 31.5510621,6.231484 31.621131,6.613964 C31.7116138,6.893404 31.7496828,7.214564 31.6578207,7.456204 C31.5334069,7.897204 31.8214069,8.379084 31.9380966,8.769964 C32.0018207,8.940764 31.9215448,9.131444 31.8495448,9.272284 C31.8407172,9.321844 31.9215448,9.392964 31.9118897,9.442524 C31.8307862,9.632084 31.8947862,9.803724 31.857269,10.005044 C31.8043034,10.044524 31.9215448,10.174724 31.8589241,10.264324 C31.8043034,10.305204 31.7601655,10.295124 31.705269,10.336284 C31.6335448,10.475444 31.6969931,10.647364 31.669131,10.797444 C31.525131,11.077444 31.5976828,11.459084 31.3276138,11.660124 C31.2280276,11.688964 31.2183724,11.739644 31.1654069,11.780524 C31.2098207,11.790044 31.2465103,11.850524 31.2820966,11.910724 C31.2280276,11.950204 31.1819586,11.940124 31.129269,11.980724 C31.1116138,12.080404 31.3025103,12.203884 31.3397517,12.263524 C31.2663724,12.665884 30.9703724,13.016164 30.9789241,13.488524 C30.9609931,13.589044 30.9336828,13.739124 30.917131,13.839644 C30.8260966,14.080164 30.6550621,14.251244 30.5648552,14.491204 C30.5472,14.591164 30.3585103,14.602644 30.3400276,14.702324 C30.2225103,14.832524 30.233269,15.042804 30.1505103,15.234044 C30.0878897,15.324484 29.9524414,15.295084 29.8445793,15.374044 C29.7190621,15.554364 29.7364414,15.715364 29.6561655,15.906604 C29.5207172,16.137044 29.3560276,16.385124 29.2216828,16.615564 C29.0688552,16.947644 28.8103724,17.266284 28.5323034,17.517164 C28.4865103,17.507644 28.3872,17.537324 28.333131,17.578204 C28.1896828,17.858204 28.0249931,18.070164 27.7190621,18.210444 C27.673269,18.200924 27.6056828,18.419324 27.5518897,18.459924 C27.3403034,18.618964 27.2186483,18.800124 26.9632,18.951044 C26.8674759,18.981004 26.8142345,19.021604 26.7074759,18.840444 C26.3742345,19.443844 25.9259586,19.915084 25.4401655,20.326684 C25.1872,20.477324 24.9289931,20.460244 24.7609931,20.629364 C24.2087172,21.182924 23.3284414,21.768404 23.2285793,21.850444 C23.1866483,21.839524 23.0180966,22.096004 23.0180966,22.096004 C22.8382345,22.111964 22.941131,22.128204 22.7764414,22.089564 C22.7764414,22.089564 22.7689931,22.372644 22.5438897,22.418844 C22.0683034,22.514884 21.9430621,23.075164 21.9058207,23.307284 C21.8870621,23.422364 21.8084414,23.343124 21.7538207,23.390444 C21.6994759,23.437484 21.7353379,23.504684 21.681269,23.552844 C21.4749241,23.682204 21.2958897,23.940084 21.1240276,24.137484 C21.0710621,24.184524 21.0354759,24.114524 20.981131,24.162964 C20.9262345,24.208604 20.6740966,24.527804 20.5836138,24.806684 C20.3667862,25.295004 20.1300966,25.732644 19.8318897,26.078164 C19.7590621,26.162164 20.0001655,26.489204 19.9825103,26.599524 C19.9135448,26.754084 19.7767172,26.780124 19.709131,26.933844 C19.6465103,27.318284 19.6294069,27.744164 19.5648552,28.149884 C19.4564414,28.546364 19.5907862,28.828044 19.6437517,29.181404 C19.7027862,29.478764 19.6280276,29.863204 19.6429241,30.152164 C19.6638897,30.385124 19.8200276,30.639924 19.7949241,30.866164 C19.8034759,31.213084 19.7248552,31.166604 19.7990621,31.458084 C19.789131,31.628884 19.7339586,31.796604 19.7725793,31.913644 C19.7590621,32.142684 19.7232,32.283804 19.7107862,32.511724 C19.6625103,32.566604 19.5645793,32.674404 19.5620966,32.731244 C19.5281655,33.301604 19.1598897,33.804484 18.7747862,34.178844 C18.5364414,34.333964 18.3289931,34.571684 18.0558897,34.551804 C17.9198897,34.543404 17.4625103,34.836564 17.3105103,34.873244 C16.9058207,34.989724 16.5833379,34.991964 16.1968552,34.937644 C15.7689931,34.819484 15.4307862,34.710844 15.1369931,34.267044 C14.9620966,34.069364 14.6605793,34.143284 14.5480276,33.839204 C14.5135448,33.719364 14.2672,33.656924 14.225269,33.593924 C14.0026483,33.388964 13.8837517,33.141724 13.7160276,32.888604 C13.6029241,32.585924 13.6848552,32.378444 13.5502345,32.084724 C13.4089931,31.903564 13.3488552,31.776164 13.209269,31.595284 C13.0233379,31.356164 13.2525793,31.011764 13.1160276,30.775444 C13.0192,30.712724 12.9267862,30.592324 12.8820966,30.474724 C12.7929931,30.239524 12.8134069,29.900444 12.6754759,29.652644 C12.6015448,29.355284 12.6489931,28.280644 12.7044414,27.991124 C12.7160276,27.932324 12.5510621,27.851124 12.5607172,27.791204 C12.5830621,27.375124 12.7259586,26.969684 12.693131,26.539324 C12.7375448,26.308044 12.7160276,26.122684 12.9229241,25.925284 C12.9229241,25.925284 12.8249931,25.844644 12.8349241,25.786404 C12.9546483,25.449564 12.9540966,25.191404 13.0183724,24.842524 C13.029131,24.784564 13.1505103,24.749284 13.1620966,24.691044 C13.0950621,24.435964 13.0917517,23.917124 13.1353379,23.684164 C13.1568552,23.567964 13.4528552,23.395484 13.5207172,23.290764 C13.5306483,23.234204 13.4779586,23.084404 13.5888552,22.884204 C13.6175448,22.834644 13.6950621,22.849764 13.7513379,22.803844 C13.7607172,22.744764 13.7232,22.675884 13.733131,22.617644 C13.761269,22.444324 14.0509241,22.318604 14.0705103,22.203244 C14.185269,21.808724 14.3808552,21.644364 14.5841655,21.323204 C14.6589241,21.182924 14.6867862,21.032004 14.8067862,20.902364 C14.861131,20.861764 14.8881655,20.900684 14.897269,20.850284 C14.9069241,20.799884 14.8804414,20.689004 14.8881655,20.639724 C15.0032,20.508404 15.1609931,20.388564 15.1874759,20.237644 C15.2672,20.046684 15.3375448,19.906404 15.4520276,19.775084 C15.6630621,19.615484 15.8738207,19.453924 16.0059586,19.223764 C16.1201655,19.092724 16.2517517,19.123524 16.3670621,18.992484 C16.5336828,18.821684 16.5783724,18.571644 16.7014069,18.391604 C16.9918897,18.038524 17.3080276,17.798284 17.6255448,17.557204 C17.8881655,17.355604 18.2238897,17.275524 18.4782345,17.124884 C18.7422345,16.924404 18.901131,16.543604 19.1560276,16.392684 C19.313269,16.272284 19.4992,16.261924 19.6575448,16.141244 C19.8161655,16.021404 19.9483034,15.790124 20.1855448,15.739724 C20.7116138,15.598324 20.3350621,15.749524 20.8277517,15.548764 C21.1350621,15.358364 21.0078897,15.306004 21.3149241,15.114204 C21.8255448,14.812364 22.0914759,14.620564 22.1342345,14.629804 C22.1872,14.591164 22.2396138,14.550004 22.2580966,14.451164 C22.3805793,14.268324 23.0343724,13.804364 23.1323034,13.773564 C23.2285793,13.744164 23.3430621,13.874084 23.4558897,13.744164 C23.5193379,13.653724 23.3943724,13.573084 23.4558897,13.482644 C23.6238897,13.312404 23.7844414,13.081964 23.9463724,12.961844 C24.0004414,12.921524 24.1270621,13.001324 24.2255448,12.970524 C24.2796138,12.931604 24.2978207,12.830244 24.3513379,12.791324 C24.4145103,12.700884 24.2978207,12.570964 24.3601655,12.479684 C24.4321655,12.338844 24.5036138,12.199404 24.6043034,12.170284 C24.757131,12.098324 24.9634759,11.989124 24.937269,11.879084 C24.9723034,11.678044 25.0539586,11.487084 25.2614069,11.377044 C25.2696828,11.327484 25.2801655,11.275124 25.289269,11.226124 C25.4048552,11.094804 25.5127172,11.016404 25.6299586,10.885644 C25.7563034,10.703924 25.7014069,10.484124 25.7745103,10.343284 C26.0078897,10.082324 26.2338207,9.872044 26.2967172,9.520644 C26.2782345,9.359644 26.1789241,9.129204 26.2512,8.987524 C26.313269,8.898484 26.5118897,8.838284 26.5300966,8.737764 C26.5665103,8.537284 26.4666483,8.306004 26.4583724,8.095444 C26.4837517,7.945644 26.6462345,7.825244 26.6277517,7.664524 C26.6106483,7.242564 26.6376828,6.831244 26.5750621,6.400044 C26.7176828,6.379884 26.7358897,6.279364 26.7535448,6.179404 C26.7176828,5.858524 26.5375448,5.558364 26.4564414,5.226004 C26.4476138,5.015724 26.6167172,4.844644 26.6084414,4.634084 C26.5905103,4.474204 26.4390621,4.282964 26.2743724,4.142124 C26.1220966,3.951164 26.2219586,3.661364 26.1670621,3.441004 C26.1220966,3.170244 25.9232,2.968364 25.8870621,2.648604 C25.869131,2.487604 25.6798897,2.497124 25.6161655,2.326884 C25.5620966,2.106244 25.5085793,1.885324 25.5085793,1.624084 C25.481269,1.514324 25.3380966,1.534204 25.2564414,1.463924 C25.0752,1.162924 25.1383724,0.550844 24.7414069,0.410844 C24.7775448,0.210364 24.5979586,0.169484 24.5336828,8.4e-05 C24.769269,8.4e-05 24.9841655,0.099764 25.1196138,0.391524 C25.1563034,0.450884 25.2917517,0.481404 25.3364414,0.491484 C25.4547862,0.621404 25.4448552,0.932484 25.5706483,1.013684 C25.7323034,1.152844 25.9764414,1.103564 26.0390621,1.274364 C26.129269,1.553804 26.3375448,1.704724 26.4363034,1.936004 C26.4274759,1.986404 26.4547862,2.096164 26.4898207,2.156364 C26.653131,2.296644 26.6705103,2.456804 26.7869241,2.587004 C27.0578207,2.908724 27.3287172,3.230724 27.2020966,3.670884 C27.1229241,3.862124 27.3645793,3.811724 27.4382345,3.931004 C27.6192,4.233404 27.5455448,4.634084 27.7800276,4.894484 C27.7361655,5.407444 27.9794759,5.878404 28.1328552,6.329764 C27.8716138,6.741084 28.017269,7.461804 28.2247172,7.872564 C28.2247172,7.872564 28.3678897,7.854084 28.3786483,7.803124 C28.4216828,7.552524 28.8727172,7.468804 28.7996138,7.348964 C28.7094069,7.066444 28.5734069,6.480404 28.5734069,6.219724 C28.601269,5.808124 28.6178207,5.446644 28.5552,5.015724 C28.5190621,4.954684 28.4829241,4.894484 28.4467862,4.834564 C28.3918897,4.614204 28.3386483,4.392164 28.3836138,4.142124 C28.3560276,4.032364 28.2752,3.962644 28.2484414,3.852044 C28.2578207,3.800804 28.2752,3.701684 28.2845793,3.651564 C28.3836138,3.620764 28.5099586,3.701684 28.6001655,3.721844 C28.6820966,3.791564 28.6081655,3.931004 28.6448552,3.992044 C28.7885793,4.233404 29.0056828,4.333364 29.0503724,4.604124 C29.0418207,4.653684 29.0230621,4.754204 29.0156138,4.805164 C29.0520276,5.125764 29.2401655,5.376364 29.2856828,5.647964 C29.3047172,5.808124 29.169269,6.038004 29.233269,6.210484 C29.4393379,6.620684 29.4481655,7.092204 29.4145103,7.553924 C29.3764414,7.754404 29.6285793,7.914564 29.557131,8.055124 C29.4856828,8.196244 29.5764414,8.215284 29.5030621,8.356964 C29.4939586,8.407364 29.3957517,8.435924 29.3866483,8.486884 C29.521269,8.777804 29.3174069,9.218804 29.2718897,9.469684 C29.2636138,9.520084 29.4255448,9.573284 29.4597517,9.389324 C29.4790621,9.277884 29.6660966,9.279284 29.7648552,9.249044 C29.8735448,9.168124 29.9535448,8.977724 29.9449931,8.768004" id="Fill-3" fill="#008ACF"></path>
                        <path d="M27.8792276,2.58482 C28.1181241,2.76934 28.2135724,3.07762 28.4028138,3.32822 L28.3835034,3.42874 C28.0516414,3.7191 27.7619862,3.23694 27.672331,2.95694 C27.5374345,2.66602 27.4017103,2.37482 27.1567448,2.16454 C27.1664,2.11498 27.1768828,2.06374 27.1859862,2.01362 C27.0679172,1.8823 26.9153655,1.69246 27.0679172,1.62218 C27.1297103,1.5323 27.2392276,1.71346 27.3647448,1.79242 C27.5542621,2.04386 27.5904,2.36418 27.8792276,2.58482" id="Fill-5" fill="#008ACF"></path>
                        <path d="M29.2431724,1.297464 C29.2467586,1.347864 29.1667586,1.434664 29.1551724,1.484224 C28.997931,1.337784 28.8406897,1.189664 28.7044138,0.943824 C28.6608276,0.930104 28.572,0.907144 28.5364138,0.844704 C28.4928276,0.832664 28.5027586,0.783104 28.5132414,0.734104 C28.6577931,0.719824 28.7708966,0.855624 28.8944828,0.941024 C28.9383448,0.952504 28.9954483,0.915264 29.0384828,0.926744 C29.1617931,1.012144 29.2307586,1.135624 29.2431724,1.297464" id="Fill-7" fill="#008ACF"></path>
                        <path d="M11.4923586,14.207536 C11.4951172,14.165256 11.495669,14.123536 11.4970483,14.081816 C11.3494621,13.990536 11.2843586,13.734896 11.0981517,13.683936 C11.0611862,13.681696 10.9831172,13.721176 10.9817379,13.762896 C10.9718069,14.014336 11.0780138,14.187376 11.1822897,14.402136 C11.2269793,14.236936 11.3392552,14.241976 11.4104276,14.371336 C11.4493241,14.331856 11.4907034,14.249256 11.4923586,14.207536 M8.90394483,10.530016 C8.94697931,10.566696 9.01125517,10.624376 9.04573793,10.668056 C9.11884138,10.716776 9.19387586,10.723216 9.27166897,10.688216 C9.34642759,10.693256 9.41291034,10.890096 9.48904828,10.894856 C9.59718621,10.946656 9.66532414,11.142376 9.77208276,11.235336 C9.84408276,11.283216 9.9193931,11.353216 9.99166897,11.402216 C10.0940138,11.537176 10.1610483,11.667936 10.2678069,11.761456 C10.3370483,11.851056 10.4509793,11.819696 10.5273931,11.825296 C10.6744276,11.879336 10.7334621,12.094936 10.8374621,12.229896 C10.875531,12.232696 10.9411862,12.364856 10.939531,12.406576 C11.0107034,12.453896 11.0802207,12.543776 11.1900138,12.594736 C11.2222897,12.640656 11.2187034,12.724096 11.251531,12.769176 C11.5224276,13.213256 11.8804966,13.494936 12.1108414,13.976816 C12.1108414,13.976816 12.1411862,14.063896 12.1389793,14.106176 C12.4203586,14.381976 12.5433931,14.771456 12.7853241,15.086176 C12.8507034,15.217496 12.9119448,15.433096 12.9734621,15.606416 C13.043531,15.696576 13.1160828,15.745016 13.1839448,15.834616 C13.2843586,16.011576 13.3825655,16.230536 13.4046345,16.442496 C13.3985655,16.526496 13.3433931,16.774296 13.2013241,16.636256 C13.0256,16.453136 13.0446345,16.203096 12.8658759,16.061136 C12.8694621,16.019976 12.8206345,15.910216 12.7853241,15.866816 C12.7130483,15.779456 12.5831172,15.784216 12.5547034,15.657096 C12.5640828,15.530816 12.4247724,15.428616 12.3527724,15.340976 C12.1737379,15.081136 11.9144276,14.983976 11.6992552,14.721896 C11.6603586,14.720496 11.6225655,14.718256 11.5833931,14.758576 C11.5439448,14.839776 11.4256,14.961016 11.5331862,15.092056 C11.6799448,15.183056 11.7491862,15.354696 11.9342897,15.447656 C12.0440828,15.536696 12.0719448,15.790096 12.1389793,16.003456 C12.2104276,16.090256 12.283531,16.178176 12.3944276,16.226056 C12.5033931,16.314536 12.4600828,16.448936 12.5638069,16.584176 C12.5599448,16.626176 12.5204966,16.663416 12.5158069,16.705136 C12.5831172,16.838416 12.7359448,16.808176 12.8402207,16.943136 C12.9207724,16.866416 13.0313931,16.927176 13.0970483,17.048696 C12.9745655,17.165736 13.0068414,17.251976 12.959669,17.376296 C12.831669,17.574816 13.1199448,17.766336 13.3009103,17.865456 C13.4151172,17.874696 13.3985655,18.084696 13.5058759,18.176536 C13.5726345,18.309536 13.7593931,18.324656 13.8603586,18.501056 C13.8931862,18.588976 13.8140138,18.624256 13.7707034,18.704616 C13.7607724,18.831176 13.9078069,18.884376 13.9792552,18.932536 C14.0520828,18.980976 14.083531,19.069176 14.1149793,19.154856 C13.9993931,19.186776 13.7764966,19.030816 13.6650483,19.020456 C13.5938759,18.988256 13.4581517,18.822496 13.3130483,18.790296 C13.263669,18.779376 13.2297379,18.900616 13.1753931,18.889136 C13.1078069,18.876816 13.0338759,18.861976 12.959669,18.848256 C12.8799448,18.833976 12.6898759,18.620336 12.6062897,18.606896 C12.5119448,18.590376 12.3977379,18.765656 12.3061517,18.750536 C11.9668414,18.691176 11.9544276,18.668216 11.8462897,18.622576 C11.7204966,18.571616 11.6016,18.512256 11.4890483,18.447296 C11.415669,18.407256 11.4363586,18.307856 11.3684966,18.263616 C11.2992552,18.218256 11.1513931,18.219096 11.0824276,18.174856 C10.8104276,18.006296 10.5541517,17.624936 10.3229793,17.502016 C10.1684966,17.421376 10.0402207,17.342696 9.87111724,17.258976 C9.78697931,17.206056 9.72794483,17.089576 9.62366897,17.054016 C9.30532414,16.945096 9.0496,16.739856 8.68601379,16.636256 C7.99663448,16.438016 7.42532414,16.838416 6.86477241,17.132696 C6.83525517,17.131016 6.77566897,17.127096 6.74504828,17.147816 C6.61649655,17.258976 6.4633931,17.320296 6.33677241,17.406536 C6.16215172,17.546536 5.92077241,17.583216 5.72849655,17.697456 C5.66697931,17.733296 5.66146207,17.846976 5.60132414,17.883376 C5.51001379,17.937416 5.34863448,17.948896 5.25842759,18.005456 C5.17649655,18.058376 5.16656552,18.156376 5.08656552,18.216016 C4.92656552,18.347616 4.76932414,18.455136 4.5513931,18.559296 C4.42835862,18.622576 3.39525517,18.802336 3.22256552,18.804296 C2.95635862,18.808776 2.77263448,19.032216 2.3753931,19.030816 C1.77235862,19.027736 1.16794483,19.014856 0.665875862,18.636576 C0.56022069,18.543056 0.540082759,18.288816 0.468910345,18.241216 C0.252634483,18.096736 0.273048276,17.804696 0.212082759,17.588256 C0.142013793,17.540656 -0.00915862069,17.528616 0.000496551724,17.402336 C0.0835310345,16.777096 0.388358621,16.211776 0.76022069,15.780016 C0.847393103,15.618456 1.04077241,15.549856 1.05649655,15.340976 C1.05649655,15.340976 1.39277241,14.863296 1.5958069,14.670096 C1.6393931,14.588896 1.57373793,14.456736 1.61677241,14.376376 C1.92518621,13.769896 2.48435862,13.353256 2.93953103,12.800816 C3.06118621,12.685176 3.14863448,12.523056 3.33842759,12.497016 C3.4153931,12.502896 3.4896,12.508496 3.53263448,12.428696 C3.62284138,12.225416 3.78284138,12.112576 3.90256552,12.037536 C4.33815172,11.736256 4.70504828,11.281536 5.20353103,11.196696 C5.28049655,11.160856 5.32491034,11.081056 5.40325517,11.044376 C5.48491034,10.966816 5.62863448,11.062576 5.70670345,11.027296 C6.07746207,10.857896 6.4153931,10.493336 6.79635862,10.440416 C6.87387586,10.405696 6.91856552,10.325336 6.95635862,10.326736 C7.29373793,10.356416 7.69291034,10.052616 8.00987586,10.372936 C8.29622069,10.313856 8.72408276,10.374896 8.90394483,10.530016" id="Fill-9" fill="#3B9147"></path>
                    </g>
                </g>
            </g>
        </g>
    </g>
</svg>