<?xml version="1.0" encoding="UTF-8"?>
<svg width="40px" height="40px" viewBox="0 0 40 40" version="1.1" xmlns="http://www.w3.org/2000/svg" xmlns:xlink="http://www.w3.org/1999/xlink">
    <!-- Generator: Sketch 54 (76480) - https://sketchapp.com -->
    <title>setting_button</title>
    <desc>Created with Sketch.</desc>
    <g id="Page-1" stroke="none" stroke-width="1" fill="none" fill-rule="evenodd">
        <g id="2.index_유치원_활동량" transform="translate(-666.000000, -134.000000)">
            <g id="setting_button" transform="translate(666.000000, 134.000000)">
                <circle id="profile_thumbnail" fill="#E3E9ED" cx="20" cy="20" r="20"></circle>
                <g id="bottom_menu_ico2_default" transform="translate(10.000000, 10.000000)" stroke="#9DAFBD" stroke-linecap="round" stroke-linejoin="round" stroke-width="2">
                    <path d="M13.7503448,9.98786207 C13.7503448,12.0830345 12.052069,13.7809655 9.95758621,13.7809655 C7.86241379,13.7809655 6.16413793,12.0830345 6.16413793,9.98786207 C6.16413793,7.89303448 7.86241379,6.19475862 9.95758621,6.19475862 C12.052069,6.19475862 13.7503448,7.89303448 13.7503448,9.98786207 Z" id="Stroke-1"></path>
                    <path d="M17.3376897,11.6817241 L20.0001034,11.2713793 L19.9914828,8.66586207 L17.3280345,8.31689655 C17.1328621,7.47689655 16.7973448,6.69206897 16.3456207,5.9862069 L17.9707931,3.82758621 L16.1197586,1.98827586 L13.9566552,3.63586207 C13.259069,3.20448276 12.4880345,2.88172414 11.6632069,2.69551724 L11.2714828,0 L8.66217241,0.00724137931 L8.31562069,2.69827586 C7.47458621,2.88931034 6.68872414,3.22103448 5.9807931,3.66655172 L3.82837931,2.02931034 L1.98906897,3.88 L3.63941379,5.99206897 C3.18768966,6.69965517 2.85182759,7.48655172 2.65734483,8.32896552 L0.000103448276,8.72965517 L0.0094137931,11.3348276 L2.64631034,11.6624138 C2.83458621,12.5055172 3.16734483,13.2927586 3.61458621,14.0024138 L2.02906897,16.1731034 L3.88182759,18.0110345 L6.0232069,16.3948276 C6.72251724,16.8289655 7.49596552,17.1527586 8.32286207,17.34 L8.73010345,20 L11.3352759,19.9906897 L11.6880345,17.3341379 C12.5207931,17.1427586 13.299069,16.8141379 14.0011379,16.3731034 L16.1732069,17.9706897 L18.0118276,16.1196552 L16.3842414,13.9862069 C16.8228621,13.2858621 17.1494138,12.5110345 17.3376897,11.6817241 Z" id="Stroke-3"></path>
                </g>
            </g>
        </g>
    </g>
</svg>